<svg version="1.1" id="Layer_1" xmlns="http://www.w3.org/2000/svg" xmlns:xlink="http://www.w3.org/1999/xlink" x="0px" y="0px"
	 width="100%" viewBox="0 0 152 154" enable-background="new 0 0 152 154" xml:space="preserve">
<path fill="#F7F7F2" opacity="1.000000" stroke="none"
		d="
M1.000000,43.000000 
	C1.000000,28.666672 1.000000,14.833342 1.000000,1.000009 
	C51.666645,1.000006 102.333290,1.000006 152.999954,1.000003 
	C152.999969,52.333298 152.999969,103.666595 152.999985,154.999908 
	C102.333382,154.999939 51.666767,154.999939 1.000074,154.999969 
	C1.000000,117.833336 1.000000,80.666664 1.000000,43.000000 
M21.720634,98.057899 
	C22.188555,97.948357 22.656475,97.838821 23.965830,97.836983 
	C25.649420,97.714409 27.333012,97.591843 29.810707,97.758781 
	C31.501734,97.769119 33.192760,97.779457 35.774811,98.044434 
	C39.120468,97.193260 43.314888,100.406433 45.989449,95.102943 
	C45.878929,93.735321 45.768410,92.367699 45.910645,90.136398 
	C45.826672,87.756981 45.742699,85.377571 45.913975,82.090469 
	C45.949448,75.176659 46.080200,68.260834 45.934181,61.350864 
	C45.907310,60.079212 44.758724,58.831264 43.680195,56.779591 
	C42.083755,56.520645 40.488865,56.049545 38.890625,56.037907 
	C29.925495,55.972595 20.959560,56.018085 11.176940,56.009956 
	C9.146570,56.751846 7.116201,57.493736 5.145440,59.141899 
	C5.363338,71.436493 5.581237,83.731094 5.877583,96.895699 
	C10.586374,97.264503 15.295166,97.633316 20.499044,98.002937 
	C20.499044,98.002937 20.996050,98.002594 21.720634,98.057899 
M64.987694,60.985130 
	C64.987694,60.985130 64.945297,60.914314 64.304726,60.988708 
	C63.521976,61.626690 62.739223,62.264671 61.402534,63.146603 
	C61.254452,63.714725 61.106365,64.282845 60.360683,64.975739 
	C59.977077,65.317955 59.593472,65.660164 58.848629,66.664955 
	C56.718456,71.222069 53.566162,75.568832 55.993336,81.815186 
	C57.624969,85.560837 59.256599,89.306488 60.971348,93.703453 
	C61.922554,94.824768 62.873764,95.946075 63.949562,97.771477 
	C65.911316,100.200287 67.873070,102.629089 70.053040,105.554222 
	C70.355850,105.734573 70.658669,105.914917 70.982750,106.016296 
	C70.982750,106.016296 70.913734,106.060165 71.172379,106.685455 
	C72.340759,108.645920 73.509140,110.606384 74.886757,112.917931 
	C77.708473,109.697693 78.881897,108.358543 80.598160,106.828560 
	C81.073921,106.243942 81.549683,105.659332 82.515526,104.914528 
	C82.616058,104.615540 82.716599,104.316559 83.137917,103.438034 
	C84.362526,101.952278 85.587128,100.466522 87.096794,98.439583 
	C87.749504,97.677536 88.402214,96.915497 89.547729,95.954590 
	C89.652336,95.642693 89.756943,95.330803 90.121925,94.483040 
	C90.459419,94.006081 90.796921,93.529121 91.755409,92.667526 
	C92.784012,89.442604 93.812614,86.217690 95.222343,82.248619 
	C94.839897,78.153847 94.457451,74.059082 93.998985,69.252197 
	C92.014275,66.797226 90.029572,64.342255 87.904427,61.433197 
	C87.716515,61.146942 87.451950,60.989456 86.929588,60.463871 
	C86.624992,60.359833 86.320389,60.255798 85.323448,59.823803 
	C80.719490,57.772930 76.054779,56.279667 70.515976,58.192219 
	C70.309113,58.444775 70.102257,58.697330 69.188530,58.990223 
	C68.122269,59.375790 67.056007,59.761356 65.466064,60.102428 
	C65.280983,60.386654 65.095894,60.670876 64.987694,60.985130 
M105.451050,97.614784 
	C106.030975,97.625595 106.610909,97.636406 108.051888,97.793282 
	C110.372520,97.668907 112.693146,97.544533 115.895927,97.749756 
	C122.219215,97.745987 128.542496,97.742226 135.406540,97.990196 
	C135.604828,97.982193 135.803101,97.974197 136.897842,98.100159 
	C139.905319,98.053886 142.912811,98.007614 146.721802,97.806412 
	C147.137161,97.150909 147.910370,96.497795 147.914780,95.839554 
	C147.994965,83.840988 148.029129,71.841324 147.900650,59.843735 
	C147.890594,58.903336 146.609039,57.976559 145.316772,57.104443 
	C145.141327,57.203705 144.965881,57.302971 143.973831,57.294415 
	C142.621140,57.431179 141.268448,57.567940 139.053757,57.359386 
	C128.664047,57.449764 118.274330,57.540138 107.368767,57.537369 
	C107.234291,57.648945 107.099815,57.760517 106.239677,58.367500 
	C106.223213,64.577332 106.206749,70.787170 105.921822,77.880974 
	C105.981430,81.252846 106.041046,84.624718 105.855865,88.787033 
	C105.953300,89.875916 106.050735,90.964798 105.910805,91.952492 
	C105.910805,91.952492 105.658592,91.898018 105.007851,92.156075 
	C105.073982,93.790604 105.140106,95.425125 105.451050,97.614784 
M144.782593,12.294119 
	C143.185516,10.926106 141.588455,9.558093 139.539413,8.048475 
	C139.539413,8.048475 139.071945,7.972388 138.912994,7.490569 
	C138.622223,7.419625 138.331467,7.348681 137.113403,7.107553 
	C131.420105,7.246810 125.726814,7.386069 119.154892,7.182347 
	C114.828629,7.262087 110.502373,7.341826 105.709511,7.225546 
	C105.520111,7.469538 105.330719,7.713530 104.524765,8.495751 
	C104.914055,11.669488 105.303345,14.843225 105.792496,18.695108 
	C105.910286,19.132626 106.028076,19.570145 105.885956,20.913172 
	C105.850067,28.574602 105.868011,36.236881 105.746887,43.896965 
	C105.708458,46.327507 106.335892,47.617958 109.078331,47.576401 
	C121.059120,47.394844 133.041748,47.335274 145.661270,47.277431 
	C145.864914,47.214741 146.068542,47.152050 146.764923,47.007698 
	C146.818909,46.321896 146.872894,45.636093 146.634293,44.071613 
	C146.482498,35.046604 146.330704,26.021599 146.200073,16.302616 
	C146.051025,15.864526 145.901978,15.426436 145.911972,14.369721 
	C145.621948,13.874996 145.331924,13.380272 144.782593,12.294119 
M42.154285,6.931860 
	C37.744198,7.011068 33.334106,7.090277 28.003448,7.082163 
	C24.020105,7.066436 20.031614,6.915376 16.054628,7.066724 
	C10.099893,7.293336 5.678819,10.847117 5.358850,16.652792 
	C4.968435,23.736654 5.514767,30.872145 5.321317,38.794510 
	C5.346258,40.592369 5.407236,42.390614 5.388248,44.188007 
	C5.354182,47.412971 6.828113,48.686474 10.824097,47.999409 
	C12.214756,47.947693 13.605415,47.895973 15.659842,47.980598 
	C16.106871,47.935402 16.553900,47.890202 17.824305,48.000816 
	C19.217983,47.961704 20.611662,47.922592 22.871174,48.028870 
	C24.915237,47.981602 26.959299,47.934338 29.870621,48.025284 
	C31.914576,47.967522 33.958530,47.909756 36.866123,47.996681 
	C38.906281,47.983624 40.946442,47.970570 43.370094,48.475677 
	C44.581581,47.988098 45.793072,47.500519 47.021748,46.074112 
	C47.013279,35.268467 47.068233,24.461990 46.926567,13.658092 
	C46.905800,12.074502 45.949818,10.503176 45.254223,8.269187 
	C44.528221,7.897531 43.802219,7.525875 42.154285,6.931860 
M96.630951,47.345631 
	C96.744904,37.902195 96.858864,28.458761 97.555359,18.437698 
	C97.480370,14.893641 99.865776,10.996562 95.847954,7.196752 
	C94.184090,6.793145 92.522903,6.053262 90.855942,6.040009 
	C79.246948,5.947712 67.636772,6.006068 55.327145,6.392836 
	C53.393867,11.638540 52.747341,16.863762 55.598499,22.779327 
	C55.680023,23.518591 55.761547,24.257856 55.668976,25.842592 
	C55.726665,27.562334 55.784359,29.282078 55.668613,31.823586 
	C55.730309,33.216125 55.792000,34.608669 55.677334,36.887871 
	C55.737926,39.591064 55.798515,42.294258 55.698917,45.785175 
	C55.785225,46.310005 55.871532,46.834839 56.254158,47.667103 
	C56.484741,47.849506 56.746372,47.954765 57.948040,48.051186 
	C61.298763,47.988686 64.649490,47.926182 68.825981,48.010128 
	C70.218315,47.963482 71.610657,47.916836 73.868462,48.021103 
	C75.913063,47.970760 77.957657,47.920418 80.920746,48.019146 
	C85.275421,47.998158 89.630104,47.977169 94.278587,48.425694 
	C94.859955,48.252476 95.441322,48.079258 96.630951,47.345631 
M55.280590,147.500259 
	C55.280590,147.500259 55.684216,147.750809 55.684216,147.750809 
	C55.684216,147.750809 56.141140,147.619675 57.016903,147.853180 
	C60.682297,147.804901 64.347687,147.756607 68.910065,147.947784 
	C72.942314,147.864822 76.974571,147.781860 81.906441,147.946594 
	C86.551254,147.607773 91.196075,147.268951 96.546936,146.458725 
	C96.546936,133.748978 96.546936,121.039246 96.546936,107.832214 
	C94.596512,108.780052 93.277283,109.421150 91.227638,109.972748 
	C87.805626,112.959511 84.383614,115.946274 80.390648,119.173271 
	C79.586784,120.095245 78.782928,121.017220 77.343674,122.200546 
	C76.614632,122.332497 75.539543,122.841644 75.209404,122.538780 
	C71.383186,119.028610 67.410591,115.620758 64.017288,111.716080 
	C61.764481,109.123756 59.647743,107.308739 55.279575,108.189941 
	C54.853649,109.336906 54.068115,110.480667 54.057861,111.631340 
	C53.963322,122.236847 53.966206,132.843857 54.054104,143.449493 
	C54.064053,144.650192 54.772469,145.845093 55.280590,147.500259 
M46.608166,107.301308 
	C45.577351,106.869011 44.549397,106.068817 43.515285,106.060799 
	C32.025349,105.971611 20.533964,105.959381 9.044669,106.083580 
	C8.017140,106.094688 7.001496,107.205223 5.453776,108.478661 
	C5.355632,118.107170 5.031832,127.740524 5.238130,137.362503 
	C5.377256,143.851517 10.040088,148.014572 16.462446,148.053070 
	C24.939117,148.103897 33.418293,148.111176 41.891712,147.924637 
	C43.153248,147.896851 44.389210,146.707016 46.390079,145.580978 
	C46.592697,143.969086 46.962837,142.358047 46.970894,140.745178 
	C47.025463,129.826401 47.003502,118.907234 46.608166,107.301308 
M146.679489,138.452774 
	C146.804321,128.750702 146.962860,119.048645 146.968994,109.346489 
	C146.969360,108.773346 145.743301,108.199432 144.189896,107.605644 
	C141.797516,107.681953 139.405121,107.758263 136.085327,107.667686 
	C130.062454,107.730690 124.039589,107.793694 117.096779,107.675476 
	C113.487564,107.675476 109.878342,107.675476 105.975868,107.675476 
	C105.975868,110.793602 105.975868,113.397758 105.800690,116.846001 
	C105.861649,118.564064 105.922607,120.282135 105.813911,122.862923 
	C105.862526,124.908714 105.911133,126.954498 105.790405,129.863281 
	C105.844826,131.909149 105.899239,133.955032 105.796974,136.792358 
	C105.854752,137.862320 105.912529,138.932297 105.814995,140.877258 
	C106.082573,143.854614 104.341797,148.025208 109.806129,148.009720 
	C115.199577,147.994446 120.592552,147.811722 126.882706,147.968796 
	C129.842514,147.999557 132.809616,148.177139 135.760620,148.030502 
	C141.921539,147.724380 145.042297,144.895935 146.679489,138.452774 
z"/>
<path fill="#FD3636" opacity="1.000000" stroke="none"
		d="
M145.023712,47.231430 
	C133.041748,47.335274 121.059120,47.394844 109.078331,47.576401 
	C106.335892,47.617958 105.708458,46.327507 105.746887,43.896965 
	C105.868011,36.236881 105.850067,28.574602 106.454498,20.459869 
	C111.710136,19.159271 116.391617,18.278864 121.087105,17.480886 
	C122.980812,17.159060 124.904472,16.835234 126.815720,16.827860 
	C132.873245,16.804482 138.931351,16.929953 144.993820,17.466728 
	C145.006836,27.700869 145.015274,37.466148 145.023712,47.231430 
z"/>
<path fill="#FCD336" opacity="1.000000" stroke="none"
		d="
M45.637005,146.054779 
	C44.389210,146.707016 43.153248,147.896851 41.891712,147.924637 
	C33.418293,148.111176 24.939117,148.103897 16.462446,148.053070 
	C10.040088,148.014572 5.377256,143.851517 5.238130,137.362503 
	C5.031832,127.740524 5.355632,118.107170 6.141589,108.225128 
	C8.554690,108.037102 10.279979,108.102592 12.010662,108.524200 
	C14.025921,111.118896 15.901689,113.497795 18.070267,115.570312 
	C25.169308,122.354912 32.308018,129.102188 39.599766,135.677185 
	C40.949448,136.894211 43.082172,137.242828 44.905151,138.416321 
	C45.183537,141.245193 45.410271,143.649994 45.637005,146.054779 
z"/>
<path fill="#FCD234" opacity="1.000000" stroke="none"
		d="
M5.655969,37.985306 
	C5.514767,30.872145 4.968435,23.736654 5.358850,16.652792 
	C5.678819,10.847117 10.099893,7.293336 16.054628,7.066724 
	C20.031614,6.915376 24.020105,7.066436 28.562151,7.486963 
	C31.082026,8.289050 33.043198,8.686337 34.961601,9.422369 
	C26.680811,18.578924 18.494970,27.446846 10.137433,36.149891 
	C9.115110,37.214478 7.172235,37.395054 5.655969,37.985306 
z"/>
<path fill="#FD3637" opacity="1.000000" stroke="none"
		d="
M106.190285,76.997002 
	C106.206749,70.787170 106.223213,64.577332 106.706482,58.306274 
	C107.410393,58.040203 107.647507,57.835361 107.884621,57.630516 
	C118.274330,57.540138 128.664047,57.449764 139.344727,57.825226 
	C137.229462,59.622421 134.087646,60.385464 132.544037,62.383327 
	C125.788429,71.126915 116.868683,75.544647 106.190285,76.997002 
z"/>
<path fill="#FDA931" opacity="1.000000" stroke="none"
		d="
M125.985733,147.702454 
	C120.592552,147.811722 115.199577,147.994446 109.806129,148.009720 
	C104.341797,148.025208 106.082573,143.854614 106.335648,140.439194 
	C110.615646,139.482285 114.579483,139.551666 118.094376,138.329681 
	C127.125259,135.190033 135.957001,131.477570 144.915146,128.442581 
	C144.939026,131.589874 144.916107,134.288651 144.462372,136.991089 
	C136.905792,137.009338 128.130722,142.216110 125.985733,147.702454 
z"/>
<path fill="#FCB432" opacity="1.000000" stroke="none"
		d="
M5.799136,96.025688 
	C5.581237,83.731094 5.363338,71.436493 5.361291,58.714607 
	C5.577143,58.287315 6.065359,58.368256 6.174463,58.465961 
	C6.601562,58.646473 6.833296,58.528130 7.394421,58.145699 
	C9.208647,58.012184 10.607223,57.941612 12.256238,57.957939 
	C12.672309,58.106461 12.837939,58.168091 13.001076,58.622818 
	C10.354271,67.424400 10.127346,75.702507 13.771692,83.974594 
	C15.479353,87.850723 16.607143,91.982307 17.535805,95.998955 
	C13.315629,96.008415 9.557383,96.017052 5.799136,96.025688 
z"/>
<path fill="#FC3F36" opacity="1.000000" stroke="none"
		d="
M144.989243,16.997869 
	C138.931351,16.929953 132.873245,16.804482 126.815720,16.827860 
	C124.904472,16.835234 122.980812,17.159060 121.087105,17.480886 
	C116.391617,18.278864 111.710136,19.159271 106.584450,20.007114 
	C106.028076,19.570145 105.910286,19.132626 105.870667,18.034603 
	C106.020409,16.918882 106.091972,16.463663 106.552292,16.004307 
	C112.391106,14.852799 117.982826,13.924271 120.033524,7.525327 
	C125.726814,7.386069 131.420105,7.246810 137.708466,7.361877 
	C138.522690,7.814707 138.778824,7.933436 139.071945,7.972388 
	C139.071945,7.972388 139.539413,8.048475 139.766708,8.517943 
	C139.551041,12.748116 141.202347,14.434893 145.061432,14.213673 
	C145.290726,14.661864 145.493042,14.855224 145.752930,14.988348 
	C145.901978,15.426436 146.051025,15.864526 145.891937,16.647583 
	C145.385605,16.994322 145.187424,16.996096 144.989243,16.997869 
z"/>
<path fill="#FD4036" opacity="1.000000" stroke="none"
		d="
M106.056053,77.438988 
	C116.868683,75.544647 125.788429,71.126915 132.544037,62.383327 
	C134.087646,60.385464 137.229462,59.622421 139.775726,57.997879 
	C141.268448,57.567940 142.621140,57.431179 144.380630,57.558670 
	C144.787430,57.822929 144.906662,58.226959 144.925110,58.417439 
	C144.943573,58.607918 144.946854,58.990643 144.615875,59.048355 
	C139.666351,63.770157 135.060379,68.446785 130.426132,73.095230 
	C124.342102,79.197891 114.521362,79.883774 109.428192,87.534958 
	C109.016632,88.153221 107.241928,87.864075 106.100662,87.996582 
	C106.041046,84.624718 105.981430,81.252846 106.056053,77.438988 
z"/>
<path fill="#FD5536" opacity="1.000000" stroke="none"
		d="
M115.013779,97.420166 
	C112.693146,97.544533 110.372520,97.668907 107.603470,97.506279 
	C107.155060,97.219276 107.022194,96.810234 106.913208,96.646904 
	C106.634926,96.275429 106.427269,96.117813 106.115509,95.598465 
	C105.919380,94.090149 105.788986,92.994087 105.658592,91.898018 
	C105.658592,91.898018 105.910805,91.952492 106.425201,91.985809 
	C108.698730,91.646759 110.694977,91.685394 112.175980,90.830963 
	C118.622101,87.111984 124.967575,83.210800 131.252609,79.222923 
	C135.908585,76.268677 140.415115,73.078911 144.992584,70.438675 
	C144.994598,73.252403 144.992233,75.621536 144.623108,77.998779 
	C142.638489,78.785423 140.886581,79.369125 139.424988,80.374786 
	C131.249161,86.000221 123.143448,91.727608 115.013779,97.420166 
z"/>
<path fill="#FC8B33" opacity="1.000000" stroke="none"
		d="
M105.959747,129.000290 
	C105.911133,126.954498 105.862526,124.908714 106.279404,122.386673 
	C111.344635,120.603577 116.235306,119.897133 120.473145,117.843506 
	C126.247177,115.045441 131.523193,111.219673 137.012741,107.834564 
	C139.405121,107.758263 141.797516,107.681953 144.605865,108.077660 
	C144.978607,110.365425 144.935364,112.181175 144.531799,114.046082 
	C141.455353,115.261055 138.295425,115.886230 136.101089,117.687630 
	C127.282715,124.926888 115.901497,124.988548 105.959747,129.000290 
z"/>
<path fill="#FD4A35" opacity="1.000000" stroke="none"
		d="
M144.988220,69.994064 
	C140.415115,73.078911 135.908585,76.268677 131.252609,79.222923 
	C124.967575,83.210800 118.622101,87.111984 112.175980,90.830963 
	C110.694977,91.685394 108.698730,91.646759 106.543884,92.036400 
	C106.050735,90.964798 105.953300,89.875916 105.978256,88.391808 
	C107.241928,87.864075 109.016632,88.153221 109.428192,87.534958 
	C114.521362,79.883774 124.342102,79.197891 130.426132,73.095230 
	C135.060379,68.446785 139.666351,63.770157 144.637039,59.507080 
	C144.988846,63.270084 144.988525,66.632072 144.988220,69.994064 
z"/>
<path fill="#FC4137" opacity="1.000000" stroke="none"
		d="
M55.889687,81.042534 
	C53.566162,75.568832 56.718456,71.222069 59.310371,66.297462 
	C60.167500,65.570305 60.562889,65.210632 60.958282,64.850967 
	C61.106365,64.282845 61.254452,63.714725 61.886040,63.297012 
	C63.246769,63.631207 64.123993,63.814995 65.000610,63.999390 
	C65.000000,64.000000 65.001221,63.999058 64.995926,64.359856 
	C64.327332,66.480125 63.664017,68.239609 62.591866,70.000793 
	C59.272030,69.803131 58.053486,71.108406 57.955536,74.074486 
	C57.763042,79.903107 61.576920,82.189789 68.398666,80.101448 
	C69.823700,81.819000 70.950829,83.391930 71.759171,85.106331 
	C70.414749,86.578300 69.389099,87.908813 68.363457,89.239319 
	C69.726021,89.922134 71.028587,90.790894 72.462212,91.253479 
	C77.066269,92.739098 82.037659,93.595673 83.577942,98.990005 
	C76.704926,98.352615 70.264946,97.709999 63.824970,97.067390 
	C62.873764,95.946075 61.922554,94.824768 61.229332,93.160477 
	C65.290024,87.400017 61.731209,84.096817 55.889687,81.042534 
z"/>
<path fill="#FD9633" opacity="1.000000" stroke="none"
		d="
M105.875076,129.431793 
	C115.901497,124.988548 127.282715,124.926888 136.101089,117.687630 
	C138.295425,115.886230 141.455353,115.261055 144.576370,114.482101 
	C144.943588,116.911293 144.905899,118.953606 144.503677,121.004257 
	C141.299149,122.574150 138.600128,124.517975 135.593231,125.627052 
	C125.773811,129.248871 115.842148,132.566360 105.953659,136.000900 
	C105.899239,133.955032 105.844826,131.909149 105.875076,129.431793 
z"/>
<path fill="#FD6635" opacity="1.000000" stroke="none"
		d="
M68.000214,47.863678 
	C64.649490,47.926182 61.298763,47.988686 57.410458,47.768387 
	C56.567863,47.443615 56.262848,47.401642 55.957836,47.359669 
	C55.871532,46.834839 55.785225,46.310005 56.136276,45.359856 
	C57.522102,44.313152 58.787888,43.904892 59.370335,43.037678 
	C65.753250,33.534130 75.320801,27.817364 84.712395,22.033556 
	C87.664406,20.215561 91.593483,19.984091 95.040955,19.440878 
	C94.951347,21.240864 94.896133,22.626440 94.462105,24.009155 
	C92.381569,24.552216 90.530273,24.833721 89.007141,25.695353 
	C84.995552,27.964691 81.008583,30.317728 77.237671,32.959782 
	C74.153786,35.120468 71.264755,37.608288 68.532242,40.206528 
	C66.179237,42.443905 65.692680,45.139320 68.000214,47.863678 
z"/>
<path fill="#FD7335" opacity="1.000000" stroke="none"
		d="
M95.075356,19.026466 
	C91.593483,19.984091 87.664406,20.215561 84.712395,22.033556 
	C75.320801,27.817364 65.753250,33.534130 59.370335,43.037678 
	C58.787888,43.904892 57.522102,44.313152 56.216370,44.965996 
	C55.798515,42.294258 55.737926,39.591064 56.131672,36.411575 
	C63.621857,30.893398 70.631439,25.814322 77.702042,20.821667 
	C83.134476,16.985756 88.318184,12.391883 95.884010,14.414328 
	C95.953468,16.216597 95.955276,17.607000 95.736435,18.998154 
	C95.515793,18.998905 95.075356,19.026466 95.075356,19.026466 
z"/>
<path fill="#FD9F32" opacity="1.000000" stroke="none"
		d="
M105.875320,136.396637 
	C115.842148,132.566360 125.773811,129.248871 135.593231,125.627052 
	C138.600128,124.517975 141.299149,122.574150 144.550140,121.440178 
	C144.930206,123.909851 144.899277,125.951950 144.868347,127.994049 
	C135.957001,131.477570 127.125259,135.190033 118.094376,138.329681 
	C114.579483,139.551666 110.615646,139.482285 106.413307,140.001694 
	C105.912529,138.932297 105.854752,137.862320 105.875320,136.396637 
z"/>
<path fill="#FCAF33" opacity="1.000000" stroke="none"
		d="
M95.840889,146.930130 
	C91.196075,147.268951 86.551254,147.607773 81.445419,147.475861 
	C80.561363,146.151642 80.365334,144.881546 79.680557,144.508423 
	C71.882217,140.259277 64.009285,136.147034 56.094437,131.600647 
	C56.072632,130.133804 56.112675,129.064529 56.516960,128.004425 
	C62.598537,130.813629 68.334656,133.576111 74.028267,136.423569 
	C80.605507,139.712967 87.263008,142.395462 94.858810,140.401093 
	C95.220177,142.844315 95.530533,144.887222 95.840889,146.930130 
z"/>
<path fill="#FC7D34" opacity="1.000000" stroke="none"
		d="
M95.816360,14.002460 
	C88.318184,12.391883 83.134476,16.985756 77.702042,20.821667 
	C70.631439,25.814322 63.621857,30.893398 56.219849,35.968246 
	C55.792000,34.608669 55.730309,33.216125 56.114510,31.380852 
	C64.825676,24.512445 73.125183,18.129686 81.307915,11.600566 
	C82.214050,10.877546 82.453468,9.318935 83.451401,8.088833 
	C87.563301,8.363400 91.225891,8.696990 94.937225,9.400513 
	C95.262764,11.181117 95.539566,12.591788 95.816360,14.002460 
z"/>
<path fill="#FCC833" opacity="1.000000" stroke="none"
		d="
M5.488643,38.389908 
	C7.172235,37.395054 9.115110,37.214478 10.137433,36.149891 
	C18.494970,27.446846 26.680811,18.578924 35.388973,9.395103 
	C37.572151,9.045279 39.285187,9.061465 40.960777,9.415567 
	C40.615299,10.835260 40.307266,11.917038 39.660370,13.036448 
	C38.547367,14.049141 37.773224,15.024201 36.749313,15.999439 
	C36.499542,15.999617 36.000000,16.000275 35.701977,16.147942 
	C32.602688,19.530449 29.801420,22.765289 26.735510,26.122843 
	C25.980629,26.830446 25.490391,27.415339 24.655529,28.037497 
	C20.874166,32.049843 17.437428,36.024921 14.000187,40.249840 
	C13.999686,40.499680 13.999029,40.999355 13.655115,41.037025 
	C10.211020,42.361359 8.471380,44.312435 9.998260,47.858700 
	C6.828113,48.686474 5.354182,47.412971 5.388248,44.188007 
	C5.407236,42.390614 5.346258,40.592369 5.488643,38.389908 
z"/>
<path fill="#FD3436" opacity="1.000000" stroke="none"
		d="
M87.110733,60.960743 
	C87.451950,60.989456 87.716515,61.146942 87.960678,62.066475 
	C88.282486,67.553467 84.454910,67.230194 81.410027,68.028221 
	C79.885201,68.427864 78.461731,69.214249 76.622604,69.899246 
	C75.503593,69.924095 74.754402,69.875435 73.932030,69.505676 
	C68.677322,68.213654 68.677322,68.213654 65.001221,63.999058 
	C65.001221,63.999058 65.000000,64.000000 65.000031,63.613808 
	C64.981812,62.456516 64.963554,61.685413 64.945297,60.914314 
	C64.945297,60.914314 64.987694,60.985130 65.171906,60.899986 
	C65.638893,60.660095 65.850105,60.437454 65.989746,60.146923 
	C67.056007,59.761356 68.122269,59.375790 69.767670,58.931454 
	C70.643272,58.751900 70.864708,58.549171 71.011139,58.264503 
	C76.054779,56.279667 80.719490,57.772930 85.804611,60.180435 
	C86.512871,60.771515 86.787857,60.912739 87.110733,60.960743 
z"/>
<path fill="#FA9534" opacity="1.000000" stroke="none"
		d="
M56.084274,108.038078 
	C59.647743,107.308739 61.764481,109.123756 64.017288,111.716080 
	C67.410591,115.620758 71.383186,119.028610 75.209404,122.538780 
	C75.539543,122.841644 76.614632,122.332497 77.680367,122.462280 
	C78.846252,123.502609 79.582916,124.806229 80.520210,124.971413 
	C85.269623,125.808395 90.071152,126.349731 94.908836,127.409424 
	C94.928261,129.214905 94.893257,130.605682 94.461212,131.996155 
	C82.446983,129.174896 70.759117,126.603111 61.877243,117.545799 
	C60.517845,116.159538 58.089302,115.821716 56.090603,114.567535 
	C56.045403,112.103416 56.064838,110.070747 56.084274,108.038078 
z"/>
<path fill="#FC5835" opacity="1.000000" stroke="none"
		d="
M68.413101,47.936905 
	C65.692680,45.139320 66.179237,42.443905 68.532242,40.206528 
	C71.264755,37.608288 74.153786,35.120468 77.237671,32.959782 
	C81.008583,30.317728 84.995552,27.964691 89.007141,25.695353 
	C90.530273,24.833721 92.381569,24.552216 94.517975,24.450087 
	C94.911217,27.265120 94.869774,29.636366 94.421249,32.005337 
	C86.451500,32.346436 80.912064,36.844032 75.344543,41.204151 
	C73.241623,42.851025 71.198936,44.745674 73.002991,47.870190 
	C71.610657,47.916836 70.218315,47.963482 68.413101,47.936905 
z"/>
<path fill="#FDB533" opacity="1.000000" stroke="none"
		d="
M22.005341,47.883484 
	C20.611662,47.922592 19.217983,47.961704 17.412369,47.534225 
	C17.379799,45.513744 17.277346,43.535095 18.214064,42.472557 
	C26.369892,33.221188 34.711933,24.133984 43.304253,14.998991 
	C44.016804,15.003476 44.423740,15.006962 44.886086,15.435850 
	C44.912289,17.576197 44.883083,19.291140 44.508888,21.049416 
	C42.762794,21.926622 41.063988,22.488907 40.012383,23.641623 
	C35.578556,28.501759 31.133408,33.379669 27.109070,38.573898 
	C24.968510,41.336723 23.678999,44.758915 22.005341,47.883484 
z"/>
<path fill="#FC8335" opacity="1.000000" stroke="none"
		d="
M136.549042,107.751122 
	C131.523193,111.219673 126.247177,115.045441 120.473145,117.843506 
	C116.235306,119.897133 111.344635,120.603577 106.364235,121.955307 
	C105.922607,120.282135 105.861649,118.564064 106.255768,116.382751 
	C109.542580,114.742462 112.554527,113.857811 115.132446,112.268944 
	C116.486122,111.434624 117.079834,109.367249 118.016724,107.856697 
	C124.039589,107.793694 130.062454,107.730690 136.549042,107.751122 
z"/>
<path fill="#FD9B32" opacity="1.000000" stroke="none"
		d="
M34.883789,97.789795 
	C33.192760,97.779457 31.501734,97.769119 29.407211,97.269333 
	C28.480089,95.432388 28.001366,94.065353 27.424940,92.740829 
	C25.122108,87.449318 21.734970,82.358826 20.751148,76.837219 
	C19.679028,70.820045 20.825384,64.407600 21.418123,58.104591 
	C23.222208,58.079880 24.612776,58.118053 26.002220,58.577888 
	C25.972704,60.163483 26.247244,61.438004 25.868961,62.474194 
	C22.171299,72.602882 26.376223,81.230782 30.928652,89.795792 
	C32.206978,92.200851 33.622349,94.533066 34.938683,97.120102 
	C34.902508,97.341507 34.883789,97.789795 34.883789,97.789795 
z"/>
<path fill="#FD5F35" opacity="1.000000" stroke="none"
		d="
M115.454857,97.584961 
	C123.143448,91.727608 131.249161,86.000221 139.424988,80.374786 
	C140.886581,79.369125 142.638489,78.785423 144.627289,78.334274 
	C144.999588,79.108757 145.000977,79.555855 145.002258,80.419106 
	C145.000229,82.223785 144.998291,83.612320 144.644012,85.038315 
	C140.526413,87.898491 136.723587,90.674225 133.050034,93.611641 
	C132.652802,93.929276 133.004700,95.183777 133.128113,96.229111 
	C133.535507,96.620064 133.823914,96.785606 134.300507,96.964371 
	C134.488693,96.977577 134.865921,96.971886 134.887665,96.989677 
	C134.909393,97.007469 134.961334,96.986076 134.913055,97.171074 
	C134.864761,97.356071 134.865784,97.738457 134.865784,97.738457 
	C128.542496,97.742226 122.219215,97.745987 115.454857,97.584961 
z"/>
<path fill="#FC3636" opacity="1.000000" stroke="none"
		d="
M84.010971,98.984779 
	C82.037659,93.595673 77.066269,92.739098 72.462212,91.253479 
	C71.028587,90.790894 69.726021,89.922134 68.363457,89.239319 
	C69.389099,87.908813 70.414749,86.578300 72.181000,85.125908 
	C75.585594,84.657356 78.249588,84.310692 81.304985,83.983658 
	C87.896179,83.834457 88.440086,89.564758 91.134415,93.052155 
	C90.796921,93.529121 90.459419,94.006081 89.794434,94.889954 
	C89.228912,95.533951 89.091576,95.819481 89.054932,96.153458 
	C88.402214,96.915497 87.749504,97.677536 86.604042,98.710342 
	C85.411186,98.982330 84.711075,98.983559 84.010971,98.984779 
z"/>
<path fill="#FD8933" opacity="1.000000" stroke="none"
		d="
M45.657890,91.000076 
	C45.768410,92.367699 45.878929,93.735321 45.526985,95.527115 
	C43.377419,95.939026 41.690319,95.926765 39.996223,95.555275 
	C39.642700,94.294464 39.466022,93.272087 38.923828,92.509651 
	C32.213047,83.073090 25.771278,73.605507 30.909868,61.122311 
	C31.261925,60.267063 30.987097,59.153763 31.417488,58.099083 
	C33.221676,58.080818 34.612179,58.123932 36.000835,58.554565 
	C35.562588,60.507069 35.319038,62.159298 34.657181,63.622280 
	C31.378918,70.868607 36.637108,86.835190 43.715721,90.734146 
	C44.249882,91.028366 45.005318,90.920845 45.657890,91.000076 
z"/>
<path fill="#FDA332" opacity="1.000000" stroke="none"
		d="
M21.004606,58.167477 
	C20.825384,64.407600 19.679028,70.820045 20.751148,76.837219 
	C21.734970,82.358826 25.122108,87.449318 27.424940,92.740829 
	C28.001366,94.065353 28.480089,95.432388 29.010159,97.124588 
	C27.333012,97.591843 25.649420,97.714409 23.535484,97.574631 
	C23.105141,97.312279 23.029453,96.899780 23.011444,96.529785 
	C22.712107,95.217857 22.548359,94.220093 22.131620,93.342445 
	C16.794847,82.103302 13.107937,70.682365 18.378948,58.174698 
	C19.501314,58.125629 20.252960,58.146553 21.004606,58.167477 
z"/>
<path fill="#FDA932" opacity="1.000000" stroke="none"
		d="
M22.438259,47.956177 
	C23.678999,44.758915 24.968510,41.336723 27.109070,38.573898 
	C31.133408,33.379669 35.578556,28.501759 40.012383,23.641623 
	C41.063988,22.488907 42.762794,21.926622 44.564896,21.484114 
	C44.927116,23.918371 44.888344,25.961262 44.514053,28.048824 
	C39.421104,33.273846 34.581741,38.383305 29.981594,43.699745 
	C29.151342,44.659275 29.304321,46.469559 29.003363,47.887070 
	C26.959299,47.934338 24.915237,47.981602 22.438259,47.956177 
z"/>
<path fill="#FD8134" opacity="1.000000" stroke="none"
		d="
M45.784271,90.568237 
	C45.005318,90.920845 44.249882,91.028366 43.715721,90.734146 
	C36.637108,86.835190 31.378918,70.868607 34.657181,63.622280 
	C35.319038,62.159298 35.562588,60.507069 36.398300,58.492096 
	C37.866425,58.084793 38.935230,58.127476 40.001427,58.569042 
	C37.542557,66.252419 37.192970,73.428291 41.655048,80.103752 
	C42.512928,81.387177 44.300205,82.049370 45.658726,82.998154 
	C45.742699,85.377571 45.826672,87.756981 45.784271,90.568237 
z"/>
<path fill="#FC7733" opacity="1.000000" stroke="none"
		d="
M45.786350,82.544312 
	C44.300205,82.049370 42.512928,81.387177 41.655048,80.103752 
	C37.192970,73.428291 37.542557,66.252419 40.351086,58.507538 
	C41.844864,57.888893 42.986378,57.730637 44.127888,57.572376 
	C44.758724,58.831264 45.907310,60.079212 45.934181,61.350864 
	C46.080200,68.260834 45.949448,75.176659 45.786350,82.544312 
z"/>
<path fill="#FC4D36" opacity="1.000000" stroke="none"
		d="
M73.435730,47.945648 
	C71.198936,44.745674 73.241623,42.851025 75.344543,41.204151 
	C80.912064,36.844032 86.451500,32.346436 94.477966,32.446480 
	C94.899956,35.260990 94.858116,37.632084 94.448013,39.945488 
	C87.697929,38.119442 80.553909,42.170277 80.002258,47.870071 
	C77.957657,47.920418 75.913063,47.970760 73.435730,47.945648 
z"/>
<path fill="#FCB631" opacity="1.000000" stroke="none"
		d="
M56.156281,131.998215 
	C64.009285,136.147034 71.882217,140.259277 79.680557,144.508423 
	C80.365334,144.881546 80.561363,146.151642 80.995605,147.352005 
	C76.974571,147.781860 72.942314,147.864822 68.451256,147.487213 
	C65.671188,141.894958 61.935028,138.615631 56.106461,137.569794 
	C56.081917,135.429245 56.119099,133.713730 56.156281,131.998215 
z"/>
<path fill="#FCB234" opacity="1.000000" stroke="none"
		d="
M126.434219,147.835632 
	C128.130722,142.216110 136.905792,137.009338 144.521057,137.294342 
	C145.350937,138.060959 145.691269,138.528000 146.031616,138.995041 
	C145.042297,144.895935 141.921539,147.724380 135.760620,148.030502 
	C132.809616,148.177139 129.842514,147.999557 126.434219,147.835632 
z"/>
<path fill="#FC4E37" opacity="1.000000" stroke="none"
		d="
M83.577942,98.990005 
	C84.711075,98.983559 85.411186,98.982330 86.461510,98.980927 
	C85.587128,100.466522 84.362526,101.952278 82.789444,103.857155 
	C82.212227,104.495461 82.073715,104.761604 82.025436,105.074722 
	C81.549683,105.659332 81.073921,106.243942 79.913528,106.904663 
	C76.457184,106.673904 73.685455,106.367035 70.913734,106.060165 
	C70.913734,106.060165 70.982750,106.016296 70.859436,105.811058 
	C70.435684,105.423180 70.135254,105.240540 69.834824,105.057899 
	C67.873070,102.629089 65.911316,100.200287 63.887268,97.419434 
	C70.264946,97.709999 76.704926,98.352615 83.577942,98.990005 
z"/>
<path fill="#FC8532" opacity="1.000000" stroke="none"
		d="
M83.002090,8.147854 
	C82.453468,9.318935 82.214050,10.877546 81.307915,11.600566 
	C73.125183,18.129686 64.825676,24.512445 56.201225,30.969967 
	C55.784359,29.282078 55.726665,27.562334 56.137398,25.416376 
	C64.905251,21.506998 71.074532,15.563566 76.440147,8.122226 
	C78.916046,8.084277 80.959068,8.116066 83.002090,8.147854 
z"/>
<path fill="#FDBF32" opacity="1.000000" stroke="none"
		d="
M42.998638,14.997992 
	C34.711933,24.133984 26.369892,33.221188 18.214064,42.472557 
	C17.277346,43.535095 17.379799,45.513744 17.000681,47.456318 
	C16.553900,47.890202 16.106871,47.935402 15.261042,47.584644 
	C14.574503,45.125580 14.286766,43.062466 13.999029,40.999355 
	C13.999029,40.999355 13.999686,40.499680 14.345709,40.211884 
	C18.127871,35.949467 21.564013,31.974850 25.000153,28.000229 
	C25.490391,27.415339 25.980629,26.830446 27.079828,26.085608 
	C30.459194,22.617199 33.229595,19.308737 36.000000,16.000275 
	C36.000000,16.000275 36.499542,15.999617 37.069618,15.971098 
	C38.426468,15.295193 39.213234,14.647806 40.336727,14.002777 
	C41.448513,14.336087 42.223576,14.667040 42.998638,14.997992 
z"/>
<path fill="#FC3436" opacity="1.000000" stroke="none"
		d="
M94.074997,69.964310 
	C94.457451,74.059082 94.839897,78.153847 94.621048,82.622910 
	C90.397591,81.662628 86.775444,80.328064 83.079971,78.623619 
	C83.058990,77.505066 83.111328,76.756409 83.500961,75.929916 
	C85.581230,70.987236 90.356201,71.393921 94.074997,69.964310 
z"/>
<path fill="#FD9E32" opacity="1.000000" stroke="none"
		d="
M29.436993,47.956177 
	C29.304321,46.469559 29.151342,44.659275 29.981594,43.699745 
	C34.581741,38.383305 39.421104,33.273846 44.570488,28.496132 
	C44.920963,31.599899 44.879490,34.301029 44.484383,37.008026 
	C39.398685,39.109665 35.642662,41.937447 36.002487,47.851990 
	C33.958530,47.909756 31.914576,47.967522 29.436993,47.956177 
z"/>
<path fill="#FB8537" opacity="1.000000" stroke="none"
		d="
M80.961609,118.933037 
	C84.383614,115.946274 87.805626,112.959511 91.783020,110.338081 
	C96.725868,113.277649 94.540474,117.435364 94.370804,120.999619 
	C89.602364,120.310822 85.281982,119.621925 80.961609,118.933037 
z"/>
<path fill="#FC8F32" opacity="1.000000" stroke="none"
		d="
M76.007271,8.191963 
	C71.074532,15.563566 64.905251,21.506998 56.224449,24.993641 
	C55.761547,24.257856 55.680023,23.518591 55.752754,22.092014 
	C55.992558,20.938904 56.078106,20.473106 56.519661,19.998169 
	C62.554054,17.907217 66.643547,14.327106 68.450912,8.114843 
	C71.262848,8.096912 73.635063,8.144438 76.007271,8.191963 
z"/>
<path fill="#FB4438" opacity="1.000000" stroke="none"
		d="
M80.461502,47.944611 
	C80.553909,42.170277 87.697929,38.119442 94.510345,40.374512 
	C94.928139,42.878437 94.915321,44.895649 94.673119,47.010235 
	C94.143784,47.310986 93.990807,47.593838 93.984779,47.956177 
	C89.630104,47.977169 85.275421,47.998158 80.461502,47.944611 
z"/>
<path fill="#FB4C38" opacity="1.000000" stroke="none"
		d="
M119.594208,7.353837 
	C117.982826,13.924271 112.391106,14.852799 106.484818,15.561443 
	C106.033997,12.731095 106.039391,10.339471 106.119698,7.826776 
	C106.194603,7.705705 106.176109,7.421566 106.176109,7.421566 
	C110.502373,7.341826 114.828629,7.262087 119.594208,7.353837 
z"/>
<path fill="#FC8E34" opacity="1.000000" stroke="none"
		d="
M80.676125,119.053154 
	C85.281982,119.621925 89.602364,120.310822 94.430992,121.424843 
	C94.910965,123.564880 94.882683,125.279793 94.854408,126.994698 
	C90.071152,126.349731 85.269623,125.808395 80.520210,124.971413 
	C79.582916,124.806229 78.846252,123.502609 77.998062,122.331604 
	C78.782928,121.017220 79.586784,120.095245 80.676125,119.053154 
z"/>
<path fill="#FCC132" opacity="1.000000" stroke="none"
		d="
M56.168182,137.994812 
	C61.935028,138.615631 65.671188,141.894958 68.002762,147.367493 
	C64.347687,147.756607 60.682297,147.804901 56.581638,147.617462 
	C56.146374,147.381744 56.091621,147.146454 56.068298,146.687286 
	C56.086044,143.483688 56.127113,140.739258 56.168182,137.994812 
z"/>
<path fill="#FA3B3D" opacity="1.000000" stroke="none"
		d="
M94.036987,69.608253 
	C90.356201,71.393921 85.581230,70.987236 83.441833,75.555458 
	C81.027740,73.447784 79.010078,71.636757 76.992424,69.825722 
	C78.461731,69.214249 79.885201,68.427864 81.410027,68.028221 
	C84.454910,67.230194 88.282486,67.553467 88.030899,62.293518 
	C90.029572,64.342255 92.014275,66.797226 94.036987,69.608253 
z"/>
<path fill="#F8CCA2" opacity="1.000000" stroke="none"
		d="
M94.908836,127.409424 
	C94.882683,125.279793 94.910965,123.564880 94.879044,121.424751 
	C94.540474,117.435364 96.725868,113.277649 92.148224,110.382835 
	C93.277283,109.421150 94.596512,108.780052 96.546936,107.832214 
	C96.546936,121.039246 96.546936,133.748978 96.193909,146.694427 
	C95.530533,144.887222 95.220177,142.844315 94.918579,140.002502 
	C94.897301,138.133072 94.867256,137.062576 94.892868,135.594910 
	C94.918442,134.130661 94.888344,133.063553 94.858253,131.996445 
	C94.893257,130.605682 94.928261,129.214905 94.908836,127.409424 
z"/>
<path fill="#F7E5DA" opacity="1.000000" stroke="none"
		d="
M145.918427,57.043449 
	C146.609039,57.976559 147.890594,58.903336 147.900650,59.843735 
	C148.029129,71.841324 147.994965,83.840988 147.914780,95.839554 
	C147.910370,96.497795 147.137161,97.150909 146.320892,97.548859 
	C145.863388,96.849747 145.806793,96.408180 145.822235,95.516388 
	C145.876114,91.717186 145.857986,88.368195 145.911774,84.603424 
	C145.941620,82.787086 145.899551,81.386543 145.906143,79.520630 
	C145.903275,72.070129 145.851761,65.084999 145.845032,57.837467 
	C145.899338,57.397861 145.908875,57.220654 145.918427,57.043449 
z"/>
<path fill="#F7DABD" opacity="1.000000" stroke="none"
		d="
M76.440147,8.122226 
	C73.635063,8.144438 71.262848,8.096912 68.036255,8.057879 
	C65.791962,8.114217 64.402061,8.162061 62.582474,8.143015 
	C60.134628,8.101856 58.116463,8.127590 56.074829,7.797481 
	C56.043232,6.966471 56.035103,6.491303 56.026974,6.016136 
	C67.636772,6.006068 79.246948,5.947712 90.855942,6.040009 
	C92.522903,6.053262 94.184090,6.793145 95.807190,7.818529 
	C95.473785,8.637064 95.181137,8.833822 94.888489,9.030580 
	C91.225891,8.696990 87.563301,8.363400 83.451401,8.088833 
	C80.959068,8.116066 78.916046,8.084277 76.440147,8.122226 
z"/>
<path fill="#FAF2DB" opacity="1.000000" stroke="none"
		d="
M12.005267,108.168083 
	C10.279979,108.102592 8.554690,108.037102 6.404867,107.888382 
	C7.001496,107.205223 8.017140,106.094688 9.044669,106.083580 
	C20.533964,105.959381 32.025349,105.971611 43.515285,106.060799 
	C44.549397,106.068817 45.577351,106.869011 46.458664,107.647049 
	C45.844925,108.010620 45.380688,108.028450 44.462864,108.017838 
	C40.340408,108.056862 36.671543,108.124336 32.552616,108.126541 
	C29.069973,108.096344 26.037386,108.131432 22.550430,108.102463 
	C18.732464,108.081627 15.368865,108.124855 12.005267,108.168083 
z"/>
<path fill="#F9F0DB" opacity="1.000000" stroke="none"
		d="
M56.106461,137.569794 
	C56.127113,140.739258 56.086044,143.483688 55.835388,146.650269 
	C55.625801,147.072388 55.157005,147.042679 55.157005,147.042679 
	C54.772469,145.845093 54.064053,144.650192 54.054104,143.449493 
	C53.966206,132.843857 53.963322,122.236847 54.057861,111.631340 
	C54.068115,110.480667 54.853649,109.336906 55.681923,108.114014 
	C56.064838,110.070747 56.045403,112.103416 56.028946,115.001656 
	C56.073097,117.909943 56.114262,119.952652 56.091755,122.420425 
	C56.069626,124.562073 56.111168,126.278664 56.152710,127.995247 
	C56.112675,129.064529 56.072632,130.133804 56.094437,131.600647 
	C56.119099,133.713730 56.081917,135.429245 56.106461,137.569794 
z"/>
<path fill="#F8DFBD" opacity="1.000000" stroke="none"
		d="
M44.838017,37.002163 
	C44.879490,34.301029 44.920963,31.599899 44.906002,28.451462 
	C44.888344,25.961262 44.927116,23.918371 44.909882,21.440781 
	C44.883083,19.291140 44.912289,17.576197 44.944748,15.000555 
	C45.107525,12.401963 45.267044,10.664069 45.426559,8.926175 
	C45.949818,10.503176 46.905800,12.074502 46.926567,13.658092 
	C47.068233,24.461990 47.013279,35.268467 46.663700,46.541595 
	C45.840145,46.989620 45.374634,46.970154 44.958206,46.501938 
	C44.950867,43.036179 44.894444,40.019173 44.838017,37.002163 
z"/>
<path fill="#F7E7BE" opacity="1.000000" stroke="none"
		d="
M44.916451,108.046288 
	C45.380688,108.028450 45.844925,108.010620 46.657722,107.990486 
	C47.003502,118.907234 47.025463,129.826401 46.970894,140.745178 
	C46.962837,142.358047 46.592697,143.969086 46.013542,145.817871 
	C45.410271,143.649994 45.183537,141.245193 44.961723,137.969254 
	C44.927681,134.396286 44.888714,131.694458 44.904343,128.541351 
	C44.918526,125.057533 44.878109,122.024986 44.895264,118.538605 
	C44.940704,114.738602 44.928577,111.392448 44.916451,108.046288 
z"/>
<path fill="#FC9032" opacity="1.000000" stroke="none"
		d="
M44.484383,37.008026 
	C44.894444,40.019173 44.950867,43.036179 44.663605,46.537865 
	C43.875481,47.334194 43.431038,47.645855 42.986599,47.957512 
	C40.946442,47.970570 38.906281,47.983624 36.434303,47.924339 
	C35.642662,41.937447 39.398685,39.109665 44.484383,37.008026 
z"/>
<path fill="#FB3B3C" opacity="1.000000" stroke="none"
		d="
M83.153290,78.993507 
	C86.775444,80.328064 90.397591,81.662628 94.430481,82.994980 
	C93.812614,86.217690 92.784012,89.442604 91.444908,92.859840 
	C88.440086,89.564758 87.896179,83.834457 81.452324,83.662315 
	C81.856606,81.878731 82.504944,80.436119 83.153290,78.993507 
z"/>
<path fill="#FC7631" opacity="1.000000" stroke="none"
		d="
M117.556747,107.766083 
	C117.079834,109.367249 116.486122,111.434624 115.132446,112.268944 
	C112.554527,113.857811 109.542580,114.742462 106.343353,115.960709 
	C105.975868,113.397758 105.975868,110.793602 105.975868,107.675476 
	C109.878342,107.675476 113.487564,107.675476 117.556747,107.766083 
z"/>
<path fill="#F5CA8F" opacity="1.000000" stroke="none"
		d="
M146.355560,138.723907 
	C145.691269,138.528000 145.350937,138.060959 144.951904,137.290665 
	C144.916107,134.288651 144.939026,131.589874 144.915146,128.442581 
	C144.899277,125.951950 144.930206,123.909851 144.914673,121.431839 
	C144.905899,118.953606 144.943588,116.911293 144.936707,114.432953 
	C144.935364,112.181175 144.978607,110.365425 145.054901,108.087784 
	C145.743301,108.199432 146.969360,108.773346 146.968994,109.346489 
	C146.962860,119.048645 146.804321,128.750702 146.355560,138.723907 
z"/>
<path fill="#F8EAD3" opacity="1.000000" stroke="none"
		d="
M43.904041,57.175983 
	C42.986378,57.730637 41.844864,57.888893 40.353699,58.108658 
	C38.935230,58.127476 37.866425,58.084793 36.400146,58.104576 
	C34.612179,58.123932 33.221676,58.080818 31.004074,58.034515 
	C28.785763,58.072956 27.394554,58.114590 26.003344,58.156223 
	C24.612776,58.118053 23.222208,58.079880 21.418123,58.104591 
	C20.252960,58.146553 19.501314,58.125629 17.965965,58.102058 
	C15.789365,58.142849 14.396468,58.186283 13.003571,58.229717 
	C12.837939,58.168091 12.672309,58.106461 12.254204,57.650452 
	C11.999121,56.845970 11.996511,56.435860 11.993901,56.025753 
	C20.959560,56.018085 29.925495,55.972595 38.890625,56.037907 
	C40.488865,56.049545 42.083755,56.520645 43.904041,57.175983 
z"/>
<path fill="#F6B0A5" opacity="1.000000" stroke="none"
		d="
M94.902512,46.912857 
	C94.915321,44.895649 94.928139,42.878437 94.878616,40.432201 
	C94.858116,37.632084 94.899956,35.260990 94.885063,32.448753 
	C94.869774,29.636366 94.911217,27.265120 94.896790,24.452946 
	C94.896133,22.626440 94.951347,21.240864 95.040955,19.440878 
	C95.075356,19.026466 95.515793,18.998905 95.990448,18.999851 
	C96.634346,19.005640 96.803589,19.010485 96.972824,19.015327 
	C96.858864,28.458761 96.744904,37.902195 96.198273,47.404488 
	C95.477905,47.279846 95.190208,47.096352 94.902512,46.912857 
z"/>
<path fill="#FA4C3B" opacity="1.000000" stroke="none"
		d="
M55.941513,81.428864 
	C61.731209,84.096817 65.290024,87.400017 61.187775,92.834824 
	C59.256599,89.306488 57.624969,85.560837 55.941513,81.428864 
z"/>
<path fill="#F9EDDC" opacity="1.000000" stroke="none"
		d="
M55.677059,6.204486 
	C56.035103,6.491303 56.043232,6.966471 56.042255,8.229539 
	C56.076637,11.347232 56.120125,13.677022 56.103439,16.404305 
	C56.083393,17.870298 56.123524,18.938805 56.163658,20.007309 
	C56.078106,20.473106 55.992558,20.938904 55.741570,21.719181 
	C52.747341,16.863762 53.393867,11.638540 55.677059,6.204486 
z"/>
<path fill="#EF4343" opacity="1.000000" stroke="none"
		d="
M144.993820,17.466728 
	C145.187424,16.996096 145.385605,16.994322 145.881348,16.994570 
	C146.330704,26.021599 146.482498,35.046604 146.585953,44.835442 
	C146.449127,46.095966 146.360641,46.592667 146.272156,47.089363 
	C146.068542,47.152050 145.864914,47.214741 145.342499,47.254433 
	C145.015274,37.466148 145.006836,27.700869 144.993820,17.466728 
z"/>
<path fill="#FDC135" opacity="1.000000" stroke="none"
		d="
M45.340393,8.597681 
	C45.267044,10.664069 45.107525,12.401963 44.889343,14.575152 
	C44.423740,15.006962 44.016804,15.003476 43.304253,14.998991 
	C42.223576,14.667040 41.448513,14.336087 40.336617,13.752374 
	C39.999599,13.332682 39.999416,13.165750 39.999237,12.998816 
	C40.307266,11.917038 40.615299,10.835260 41.272873,9.352267 
	C42.107018,8.352108 42.591618,7.753164 43.076218,7.154220 
	C43.802219,7.525875 44.528221,7.897531 45.340393,8.597681 
z"/>
<path fill="#F8B83E" opacity="1.000000" stroke="none"
		d="
M5.838360,96.460693 
	C9.557383,96.017052 13.315629,96.008415 17.843533,96.027924 
	C19.089733,96.403122 19.566278,96.750191 20.021196,97.322968 
	C19.999567,97.548676 20.003958,98.002129 20.003958,98.002129 
	C15.295166,97.633316 10.586374,97.264503 5.838360,96.460693 
z"/>
<path fill="#F8DB77" opacity="1.000000" stroke="none"
		d="
M42.615250,7.043040 
	C42.591618,7.753164 42.107018,8.352108 41.310318,9.014353 
	C39.285187,9.061465 37.572151,9.045279 35.431740,9.056357 
	C33.043198,8.686337 31.082026,8.289050 29.022434,7.530624 
	C33.334106,7.090277 37.744198,7.011068 42.615250,7.043040 
z"/>
<path fill="#FDC233" opacity="1.000000" stroke="none"
		d="
M13.655115,41.037025 
	C14.286766,43.062466 14.574503,45.125580 14.929157,47.516472 
	C13.605415,47.895973 12.214756,47.947693 10.411179,47.929054 
	C8.471380,44.312435 10.211020,42.361359 13.655115,41.037025 
z"/>
<path fill="#F75D3B" opacity="1.000000" stroke="none"
		d="
M71.043060,106.372810 
	C73.685455,106.367035 76.457184,106.673904 79.642113,107.000084 
	C78.881897,108.358543 77.708473,109.697693 74.886757,112.917931 
	C73.509140,110.606384 72.340759,108.645920 71.043060,106.372810 
z"/>
<path fill="#F7EDE7" opacity="1.000000" stroke="none"
		d="
M97.264091,18.726513 
	C96.803589,19.010485 96.634346,19.005640 96.211090,18.999100 
	C95.955276,17.607000 95.953468,16.216597 95.884003,14.414328 
	C95.539566,12.591788 95.262764,11.181117 94.937225,9.400513 
	C95.181137,8.833822 95.473785,8.637064 95.911255,8.214335 
	C99.865776,10.996562 97.480370,14.893641 97.264091,18.726513 
z"/>
<path fill="#F37742" opacity="1.000000" stroke="none"
		d="
M145.750198,95.966614 
	C145.806793,96.408180 145.863388,96.849747 145.920135,97.626328 
	C142.912811,98.007614 139.905319,98.053886 136.336273,97.813812 
	C135.560272,97.261833 135.289154,97.081367 134.961334,96.986076 
	C134.961334,96.986076 134.909393,97.007469 135.209900,96.724541 
	C138.923676,96.283279 142.336945,96.124947 145.750198,95.966614 
z"/>
<path fill="#F8EBE6" opacity="1.000000" stroke="none"
		d="
M106.044792,7.947847 
	C106.039391,10.339471 106.033997,12.731095 106.096069,15.565582 
	C106.091972,16.463663 106.020409,16.918882 105.820740,17.695530 
	C105.303345,14.843225 104.914055,11.669488 105.058807,8.229931 
	C105.592857,7.964111 106.044792,7.947847 106.044792,7.947847 
z"/>
<path fill="#EFB579" opacity="1.000000" stroke="none"
		d="
M40.003216,95.914505 
	C41.690319,95.926765 43.377419,95.939026 45.483925,95.940292 
	C43.314888,100.406433 39.120468,97.193260 35.329300,97.917114 
	C34.883789,97.789795 34.902508,97.341507 35.308365,97.123062 
	C37.143883,96.574577 38.573551,96.244545 40.003216,95.914505 
z"/>
<path fill="#FB4C38" opacity="1.000000" stroke="none"
		d="
M144.976837,14.019076 
	C141.202347,14.434893 139.551041,12.748116 139.992691,8.588746 
	C141.588455,9.558093 143.185516,10.926106 144.895844,12.873219 
	C144.998337,13.641238 144.987595,13.830157 144.976837,14.019076 
z"/>
<path fill="#F8EDCB" opacity="1.000000" stroke="none"
		d="
M11.585421,56.017853 
	C11.996511,56.435860 11.999121,56.845970 12.003764,57.563560 
	C10.607223,57.941612 9.208647,58.012184 7.155221,58.123291 
	C6.500370,58.163830 6.065359,58.368256 6.065359,58.368256 
	C6.065359,58.368256 5.577143,58.287315 5.331487,58.261471 
	C7.116201,57.493736 9.146570,56.751846 11.585421,56.017853 
z"/>
<path fill="#F9EBE6" opacity="1.000000" stroke="none"
		d="
M105.333221,92.027046 
	C105.788986,92.994087 105.919380,94.090149 106.055984,95.842224 
	C106.073135,96.665138 106.084068,96.832054 105.872650,97.011749 
	C105.650291,97.024513 105.206238,97.059654 105.206238,97.059654 
	C105.140106,95.425125 105.073982,93.790604 105.333221,92.027046 
z"/>
<path fill="#FB403A" opacity="1.000000" stroke="none"
		d="
M64.625015,60.951511 
	C64.963554,61.685413 64.981812,62.456516 65.000641,63.613197 
	C64.123993,63.814995 63.246769,63.631207 62.163006,63.175034 
	C62.739223,62.264671 63.521976,61.626690 64.625015,60.951511 
z"/>
<path fill="#F9EFD9" opacity="1.000000" stroke="none"
		d="
M43.178345,48.216595 
	C43.431038,47.645855 43.875481,47.334194 44.614525,46.986614 
	C45.374634,46.970154 45.840145,46.989620 46.655106,47.011009 
	C45.793072,47.500519 44.581581,47.988098 43.178345,48.216595 
z"/>
<path fill="#F9E0DC" opacity="1.000000" stroke="none"
		d="
M146.518539,47.048531 
	C146.360641,46.592667 146.449127,46.095966 146.732239,45.274780 
	C146.872894,45.636093 146.818909,46.321896 146.518539,47.048531 
z"/>
<path fill="#FAE5DD" opacity="1.000000" stroke="none"
		d="
M94.673119,47.010235 
	C95.190208,47.096352 95.477905,47.279846 95.894150,47.684692 
	C95.441322,48.079258 94.859955,48.252476 94.131683,48.190933 
	C93.990807,47.593838 94.143784,47.310986 94.673119,47.010235 
z"/>
<path fill="#FB403A" opacity="1.000000" stroke="none"
		d="
M60.659481,64.913353 
	C60.562889,65.210632 60.167500,65.570305 59.490990,65.966171 
	C59.593472,65.660164 59.977077,65.317955 60.659481,64.913353 
z"/>
<path fill="#E99277" opacity="1.000000" stroke="none"
		d="
M105.328644,97.337219 
	C105.206238,97.059654 105.650291,97.024513 106.106133,96.973053 
	C106.561974,96.921585 107.022194,96.810234 107.022194,96.810234 
	C107.022194,96.810234 107.155060,97.219276 107.172943,97.433243 
	C106.610909,97.636406 106.030975,97.625595 105.328644,97.337219 
z"/>
<path fill="#EFB579" opacity="1.000000" stroke="none"
		d="
M23.029453,96.899780 
	C23.029453,96.899780 23.105141,97.312279 23.114769,97.520782 
	C22.656475,97.838821 22.188555,97.948357 21.361181,97.804245 
	C21.001728,97.550598 20.919363,97.107445 21.270485,97.068161 
	C22.090889,96.985847 22.560171,96.942810 23.029453,96.899780 
z"/>
<path fill="#EF4343" opacity="1.000000" stroke="none"
		d="
M145.061432,14.213673 
	C144.987595,13.830157 144.998337,13.641238 145.025482,13.168934 
	C145.331924,13.380272 145.621948,13.874996 145.832458,14.679035 
	C145.493042,14.855224 145.290726,14.661864 145.061432,14.213673 
z"/>
<path fill="#F7CB69" opacity="1.000000" stroke="none"
		d="
M55.218796,147.271469 
	C55.157005,147.042679 55.625801,147.072388 55.858711,147.109421 
	C56.091621,147.146454 56.146374,147.381744 56.143757,147.500702 
	C56.141140,147.619675 55.684216,147.750809 55.684216,147.750809 
	C55.684216,147.750809 55.280590,147.500259 55.218796,147.271469 
z"/>
<path fill="#F75D3B" opacity="1.000000" stroke="none"
		d="
M69.943932,105.306061 
	C70.135254,105.240540 70.435684,105.423180 70.848801,105.850540 
	C70.658669,105.914917 70.355850,105.734573 69.943932,105.306061 
z"/>
<path fill="#F75D3B" opacity="1.000000" stroke="none"
		d="
M82.270477,104.994621 
	C82.073715,104.761604 82.212227,104.495461 82.629051,104.146927 
	C82.716599,104.316559 82.616058,104.615540 82.270477,104.994621 
z"/>
<path fill="#E99277" opacity="1.000000" stroke="none"
		d="
M134.913055,97.171074 
	C135.289154,97.081367 135.560272,97.261833 135.888031,97.746834 
	C135.803101,97.974197 135.604828,97.982193 135.136169,97.864326 
	C134.865784,97.738457 134.864761,97.356071 134.913055,97.171074 
z"/>
<path fill="#F7E5C8" opacity="1.000000" stroke="none"
		d="
M20.919363,97.107445 
	C20.919363,97.107445 21.001728,97.550598 20.998890,97.776596 
	C20.996050,98.002594 20.499044,98.002937 20.251501,98.002533 
	C20.003958,98.002129 19.999567,97.548676 20.240582,97.300964 
	C20.481596,97.053261 20.919363,97.107445 20.919363,97.107445 
z"/>
<path fill="#FC4137" opacity="1.000000" stroke="none"
		d="
M89.301331,96.054024 
	C89.091576,95.819481 89.228912,95.533951 89.664246,95.157890 
	C89.756943,95.330803 89.652336,95.642693 89.301331,96.054024 
z"/>
<path fill="#FA3B3D" opacity="1.000000" stroke="none"
		d="
M87.020157,60.712307 
	C86.787857,60.912739 86.512871,60.771515 86.150787,60.344414 
	C86.320389,60.255798 86.624992,60.359833 87.020157,60.712307 
z"/>
<path fill="#FB403A" opacity="1.000000" stroke="none"
		d="
M65.727905,60.124676 
	C65.850105,60.437454 65.638893,60.660095 65.133469,60.884972 
	C65.095894,60.670876 65.280983,60.386654 65.727905,60.124676 
z"/>
<path fill="#F24342" opacity="1.000000" stroke="none"
		d="
M107.626694,57.583946 
	C107.647507,57.835361 107.410393,58.040203 107.069313,58.058571 
	C107.099815,57.760517 107.234291,57.648945 107.626694,57.583946 
z"/>
<path fill="#F05051" opacity="1.000000" stroke="none"
		d="
M70.763557,58.228363 
	C70.864708,58.549171 70.643272,58.751900 70.121109,58.911285 
	C70.102257,58.697330 70.309113,58.444775 70.763557,58.228363 
z"/>
<path fill="#EB837F" opacity="1.000000" stroke="none"
		d="
M145.617599,57.073944 
	C145.908875,57.220654 145.899338,57.397861 145.618744,57.848629 
	C145.347687,58.122192 144.906662,58.226959 144.906662,58.226959 
	C144.906662,58.226959 144.787430,57.822929 144.788940,57.612583 
	C144.965881,57.302971 145.141327,57.203705 145.617599,57.073944 
z"/>
<path fill="#FAE5DD" opacity="1.000000" stroke="none"
		d="
M56.105995,47.513386 
	C56.262848,47.401642 56.567863,47.443615 56.955963,47.734234 
	C56.746372,47.954765 56.484741,47.849506 56.105995,47.513386 
z"/>
<path fill="#FB4C38" opacity="1.000000" stroke="none"
		d="
M138.992462,7.731479 
	C138.778824,7.933436 138.522690,7.814707 138.172119,7.446970 
	C138.331467,7.348681 138.622223,7.419625 138.992462,7.731479 
z"/>
<path fill="#F28074" opacity="1.000000" stroke="none"
		d="
M106.119698,7.826776 
	C106.044792,7.947847 105.592857,7.964111 105.367088,7.960816 
	C105.330719,7.713530 105.520111,7.469538 105.942810,7.323556 
	C106.176109,7.421566 106.194603,7.705705 106.119698,7.826776 
z"/>
<path fill="#FDC733" opacity="1.000000" stroke="none"
		d="
M44.849751,128.992645 
	C44.888714,131.694458 44.927681,134.396286 44.910072,137.545166 
	C43.082172,137.242828 40.949448,136.894211 39.599766,135.677185 
	C32.308018,129.102188 25.169308,122.354912 18.070267,115.570312 
	C15.901689,113.497795 14.025921,111.118896 12.010662,108.524200 
	C15.368865,108.124855 18.732464,108.081627 22.594940,108.435097 
	C28.864557,117.150513 36.705261,123.235489 44.849751,128.992645 
z"/>
<path fill="#FDAB33" opacity="1.000000" stroke="none"
		d="
M21.270485,97.068161 
	C20.919363,97.107445 20.481596,97.053261 20.262211,97.075264 
	C19.566278,96.750191 19.089733,96.403122 18.305462,96.027084 
	C16.607143,91.982307 15.479353,87.850723 13.771692,83.974594 
	C10.127346,75.702507 10.354271,67.424400 13.001076,58.622818 
	C14.396468,58.186283 15.789365,58.142849 17.595245,58.172050 
	C13.107937,70.682365 16.794847,82.103302 22.131620,93.342445 
	C22.548359,94.220093 22.712107,95.217857 23.011444,96.529785 
	C22.560171,96.942810 22.090889,96.985847 21.270485,97.068161 
z"/>
<path fill="#F8B83E" opacity="1.000000" stroke="none"
		d="
M6.174463,58.465961 
	C6.065359,58.368256 6.500370,58.163830 6.739570,58.186234 
	C6.833296,58.528130 6.601562,58.646473 6.174463,58.465961 
z"/>
<path fill="#F05B43" opacity="1.000000" stroke="none"
		d="
M144.925110,58.417439 
	C144.906662,58.226959 145.347687,58.122192 145.573975,58.111031 
	C145.851761,65.084999 145.903275,72.070129 145.693359,79.527008 
	C145.431931,79.998764 145.002365,80.002960 145.002365,80.002960 
	C145.000977,79.555855 144.999588,79.108757 144.994034,78.326157 
	C144.992233,75.621536 144.994598,73.252403 144.992584,70.438675 
	C144.988525,66.632072 144.988846,63.270084 144.968018,59.449368 
	C144.946854,58.990643 144.943573,58.607918 144.925110,58.417439 
z"/>
<path fill="#F5653C" opacity="1.000000" stroke="none"
		d="
M106.913208,96.646904 
	C107.022194,96.810234 106.561974,96.921585 106.328491,96.960281 
	C106.084068,96.832054 106.073135,96.665138 106.121727,96.254471 
	C106.427269,96.117813 106.634926,96.275429 106.913208,96.646904 
z"/>
<path fill="#F7F5F0" opacity="1.000000" stroke="none"
		d="
M83.079971,78.623619 
	C82.504944,80.436119 81.856606,81.878731 81.060921,83.642685 
	C78.249588,84.310692 75.585594,84.657356 72.499771,84.984444 
	C70.950829,83.391930 69.823700,81.819000 68.361061,79.698448 
	C68.287056,77.093575 68.548561,75.036324 68.993866,72.682480 
	C70.786842,71.532860 72.396027,70.679817 74.005211,69.826767 
	C74.754402,69.875435 75.503593,69.924095 76.622604,69.899246 
	C79.010078,71.636757 81.027740,73.447784 83.104530,75.633286 
	C83.111328,76.756409 83.058990,77.505066 83.079971,78.623619 
z"/>
<path fill="#FC3633" opacity="1.000000" stroke="none"
		d="
M68.810074,72.979065 
	C68.548561,75.036324 68.287056,77.093575 68.063156,79.553833 
	C61.576920,82.189789 57.763042,79.903107 57.955536,74.074486 
	C58.053486,71.108406 59.272030,69.803131 62.789803,70.266205 
	C65.201080,71.346298 67.005577,72.162682 68.810074,72.979065 
z"/>
<path fill="#FB403A" opacity="1.000000" stroke="none"
		d="
M68.993866,72.682480 
	C67.005577,72.162682 65.201080,71.346298 63.198643,70.264496 
	C63.664017,68.239609 64.327332,66.480125 64.995926,64.359856 
	C68.677322,68.213654 68.677322,68.213654 73.932030,69.505676 
	C72.396027,70.679817 70.786842,71.532860 68.993866,72.682480 
z"/>
<path fill="#FDA632" opacity="1.000000" stroke="none"
		d="
M56.516960,128.004425 
	C56.111168,126.278664 56.069626,124.562073 56.457462,122.429726 
	C59.839931,123.406624 62.781021,124.825432 65.748337,126.187103 
	C75.098763,130.477936 83.931061,136.314560 94.837204,135.992065 
	C94.867256,137.062576 94.897301,138.133072 94.867584,139.602173 
	C87.263008,142.395462 80.605507,139.712967 74.028267,136.423569 
	C68.334656,133.576111 62.598537,130.813629 56.516960,128.004425 
z"/>
<path fill="#FDC233" opacity="1.000000" stroke="none"
		d="
M24.655529,28.037497 
	C21.564013,31.974850 18.127871,35.949467 14.346209,39.962044 
	C17.437428,36.024921 20.874166,32.049843 24.655529,28.037497 
z"/>
<path fill="#FDC233" opacity="1.000000" stroke="none"
		d="
M35.701977,16.147942 
	C33.229595,19.308737 30.459194,22.617199 27.344471,25.962896 
	C29.801420,22.765289 32.602688,19.530449 35.701977,16.147942 
z"/>
<path fill="#FDC233" opacity="1.000000" stroke="none"
		d="
M39.660370,13.036448 
	C39.999416,13.165750 39.999599,13.332682 39.999893,13.750017 
	C39.213234,14.647806 38.426468,15.295193 37.319389,15.970921 
	C37.773224,15.024201 38.547367,14.049141 39.660370,13.036448 
z"/>
<path fill="#FC9C32" opacity="1.000000" stroke="none"
		d="
M94.892868,135.594910 
	C83.931061,136.314560 75.098763,130.477936 65.748337,126.187103 
	C62.781021,124.825432 59.839931,123.406624 56.521137,122.004669 
	C56.114262,119.952652 56.073097,117.909943 56.093590,115.433105 
	C58.089302,115.821716 60.517845,116.159538 61.877243,117.545799 
	C70.759117,126.603111 82.446983,129.174896 94.461212,131.996155 
	C94.888344,133.063553 94.918442,134.130661 94.892868,135.594910 
z"/>
<path fill="#FD9133" opacity="1.000000" stroke="none"
		d="
M39.996223,95.555275 
	C38.573551,96.244545 37.143883,96.574577 35.344536,96.901657 
	C33.622349,94.533066 32.206978,92.200851 30.928652,89.795792 
	C26.376223,81.230782 22.171299,72.602882 25.868961,62.474194 
	C26.247244,61.438004 25.972704,60.163483 26.002220,58.577888 
	C27.394554,58.114590 28.785763,58.072956 30.590389,58.095898 
	C30.987097,59.153763 31.261925,60.267063 30.909868,61.122311 
	C25.771278,73.605507 32.213047,83.073090 38.923828,92.509651 
	C39.466022,93.272087 39.642700,94.294464 39.996223,95.555275 
z"/>
<path fill="#FD6A34" opacity="1.000000" stroke="none"
		d="
M145.822235,95.516388 
	C142.336945,96.124947 138.923676,96.283279 135.188171,96.706749 
	C134.865921,96.971886 134.488693,96.977577 134.151062,96.767517 
	C133.593185,96.303345 133.325089,96.118759 133.009125,96.003700 
	C133.004700,95.183777 132.652802,93.929276 133.050034,93.611641 
	C136.723587,90.674225 140.526413,87.898491 144.855011,85.040375 
	C145.418350,85.004974 145.839859,85.019211 145.839859,85.019211 
	C145.857986,88.368195 145.876114,91.717186 145.822235,95.516388 
z"/>
<path fill="#F37742" opacity="1.000000" stroke="none"
		d="
M145.911774,84.603424 
	C145.839859,85.019211 145.418350,85.004974 145.207352,85.002914 
	C144.998291,83.612320 145.000229,82.223785 145.002258,80.419106 
	C145.002365,80.002960 145.431931,79.998764 145.644714,79.992386 
	C145.899551,81.386543 145.941620,82.787086 145.911774,84.603424 
z"/>
<path fill="#F37742" opacity="1.000000" stroke="none"
		d="
M133.128113,96.229111 
	C133.325089,96.118759 133.593185,96.303345 133.962891,96.754303 
	C133.823914,96.785606 133.535507,96.620064 133.128113,96.229111 
z"/>
<path fill="#FC9933" opacity="1.000000" stroke="none"
		d="
M56.519665,19.998169 
	C56.123524,18.938805 56.083393,17.870298 56.435760,16.356350 
	C58.889557,13.343906 60.950855,10.776907 63.012154,8.209907 
	C64.402061,8.162061 65.791962,8.114217 67.596527,8.123337 
	C66.643547,14.327106 62.554054,17.907217 56.519665,19.998169 
z"/>
<path fill="#FCA336" opacity="1.000000" stroke="none"
		d="
M62.582474,8.143015 
	C60.950855,10.776907 58.889557,13.343906 56.495934,15.958859 
	C56.120125,13.677022 56.076637,11.347232 56.065723,8.585382 
	C58.116463,8.127590 60.134628,8.101856 62.582474,8.143015 
z"/>
<path fill="#FDBB34" opacity="1.000000" stroke="none"
		d="
M44.904343,128.541351 
	C36.705261,123.235489 28.864557,117.150513 23.049309,108.499161 
	C26.037386,108.131432 29.069973,108.096344 32.558960,108.479149 
	C34.989647,114.565056 40.178913,116.468132 44.837692,118.992447 
	C44.878109,122.024986 44.918526,125.057533 44.904343,128.541351 
z"/>
<path fill="#FCAF33" opacity="1.000000" stroke="none"
		d="
M44.895264,118.538605 
	C40.178913,116.468132 34.989647,114.565056 33.009018,108.544426 
	C36.671543,108.124336 40.340408,108.056862 44.462864,108.017838 
	C44.928577,111.392448 44.940704,114.738602 44.895264,118.538605 
z"/>
</svg>